<svg height="147" viewBox="0 0 296 147" width="296" xmlns="http://www.w3.org/2000/svg"><g fill="none"><g fill="#000"><g transform="translate(160.381 68.549)"><path d="m118.73 6.485v3.97h5.688v16.294h4.508v-16.294h4.98l1.151-3.97z"/><path d="m22.926 6.485h11.67l-1.147 3.97h-6.014v4.086h6.1v3.97h-6.1v4.271h7.104v3.967h-11.613z"/><path d="m41.373 6.485h4.068l4.861 7.072c.586.86 1.062 1.601 1.504 2.399h.059c.354-.737.824-1.601 1.416-2.554l4.359-6.918h4.096v20.264h-4.508v-10.333c0-.733 0-1.566.029-2.184h-.029c-.178.432-.971 1.632-1.297 2.153l-3.154 4.983h-1.973l-3.598-5.165c-.41-.585-.883-1.202-1.295-1.972h-.059c.027.679.027 1.478.027 2.03v10.486h-4.508v-20.261z"/><path d="m69.103 6.485h4.51v20.264h-4.51zm-.384-3.844c0-1.444 1.15-2.641 2.654-2.641 1.502 0 2.652 1.133 2.652 2.641 0 1.446-1.15 2.677-2.652 2.677-1.504 0-2.654-1.169-2.654-2.677z"/><path d="m85.605 18.755-6.777-12.27h4.861l4.186 8.27h.06l4.213-8.27h4.834l-6.867 12.331v7.933h-4.51z"/><path d="m102.197 6.485h11.67l-1.15 3.97h-6.012v4.086h6.102v3.97h-6.102v4.271h7.105v3.967h-11.613z"/><path d="m16.885 25.335c-2.385 1.353-4.625 1.723-6.688 1.723-6.721 0-10.197-4.305-10.197-10.243 0-5.808 4.125-10.544 10.699-10.544 2.182 0 3.949.367 5.303.952v4.305c-1.619-.891-3.359-1.352-5.186-1.352-4.186 0-6.012 3.104-6.012 6.581 0 3.781 2.297 6.396 5.951 6.396 2.033 0 3.449-.616 4.893-1.507z"/></g><path d="m290.998 122.202h-1.865v3.178h1.865zm0 4.842h-1.865v13.791h1.865zm-17.447-5.018c.227.857.707 1.513 1.438 1.966.68.429 1.463.631 2.395.631.934 0 1.715-.202 2.396-.631.73-.453 1.209-1.108 1.438-1.966h-1.59c-.379.781-1.109 1.159-2.244 1.159-1.133 0-1.865-.378-2.244-1.159zm3.303 6.504c1.564 0 2.873.53 3.934 1.564 1.061 1.033 1.588 2.32 1.588 3.856 0 1.513-.504 2.8-1.537 3.858-1.033 1.033-2.295 1.563-3.807 1.563-1.564 0-2.852-.53-3.834-1.614s-1.461-2.396-1.461-3.959c0-1.437.504-2.672 1.486-3.705.984-1.032 2.193-1.563 3.631-1.563zm5.546-1.486v2.673c-.504-.984-1.285-1.715-2.318-2.245-.959-.479-2.018-.73-3.178-.73-2.193 0-4.109.982-5.723 2.976-.404.479-.732 1.159-.959 2.042-.227.782-.354 1.537-.354 2.219 0 1.991.682 3.706 2.068 5.093s3.076 2.093 5.066 2.093c1.162 0 2.221-.252 3.178-.757 1.061-.529 1.791-1.311 2.219-2.295v.758c0 1.41-.201 2.47-.605 3.177-.428.756-1.084 1.361-1.941 1.789-.781.404-1.639.605-2.572.605-2.242 0-3.932-1.084-5.092-3.277h-1.814c.377 1.486 1.209 2.697 2.52 3.656 1.262.932 2.674 1.412 4.236 1.412 2.244 0 4.061-.758 5.447-2.245.705-.781 1.16-1.562 1.385-2.369.152-.581.229-1.488.229-2.748v-11.825h-1.792zm-16.943-4.842h-1.865v3.178h1.865zm0 4.842h-1.865v13.791h1.865zm-6.809-4.842h-1.865v18.633h1.865zm-8.722 18.633v-12.103h3.203v-1.688h-3.203v-4.842h-1.865v4.842h-2.873v1.688h2.873v12.103zm-8.395-18.633h-1.867v3.178h1.867zm0 4.842h-1.867v13.791h1.867zm-10.842 14.094-1.01 2.27.783.428c.227-.377.58-.554 1.008-.554.682 0 1.211.504 1.211 1.185 0 .781-.354 1.186-1.084 1.186-.506 0-1.084-.354-1.16-.832l-1.109.125c.277 1.211 1.008 1.815 2.244 1.815 1.285 0 2.193-1.033 2.193-2.319 0-1.21-.756-2.017-1.967-2.017-.277 0-.529.051-.781.176l.605-1.462h-.933zm-3.707-4.363c-.076 1.185.303 2.193 1.135 3.077.832.881 1.865 1.311 3.051 1.311 1.285 0 2.371-.403 3.203-1.21.832-.833 1.26-1.892 1.26-3.178 0-1.134-.377-2.017-1.16-2.697-.58-.529-1.488-.958-2.697-1.336-.781-.253-1.336-.505-1.664-.731-.504-.379-.758-.883-.758-1.563 0-1.084.834-1.917 1.918-1.917 1.209 0 2.143.731 2.143 1.942h1.865c0-1.033-.377-1.892-1.133-2.622-.758-.732-1.641-1.109-2.674-1.109-1.135 0-2.068.377-2.85 1.109-.756.73-1.133 1.639-1.133 2.748 0 1.06.377 1.942 1.109 2.623.504.479 1.336.881 2.494 1.209 1.791.53 2.674 1.412 2.674 2.648 0 1.336-1.084 2.294-2.42 2.294-.707 0-1.312-.253-1.816-.757-.479-.529-.705-1.135-.68-1.841zm-3.63 4.06v-1.689h-8.32v-6.857h8.043v-1.689h-8.043v-6.707h8.32v-1.689h-10.186v18.633h10.186zm-26.12 0v-12.103h3.201v-1.688h-3.201v-4.842h-1.865v4.842h-2.877v1.688h2.877v12.103zm-15.582-12.305c1.537 0 2.799.53 3.832 1.59 1.033 1.058 1.564 2.369 1.564 3.908 0 1.436-.531 2.697-1.59 3.757-1.059 1.058-2.318 1.588-3.756 1.588-1.514 0-2.824-.53-3.934-1.563-1.084-1.034-1.639-2.319-1.639-3.808 0-1.537.529-2.824 1.613-3.882 1.086-1.059 2.373-1.59 3.91-1.59zm5.397-1.486v2.622c-.506-.934-1.262-1.664-2.27-2.194-.934-.479-1.992-.73-3.127-.73-2.143 0-4.135.982-5.951 2.925-.402.379-.756 1.033-1.059 1.966-.252.833-.379 1.59-.379 2.219 0 .732.127 1.488.354 2.295.252.934.58 1.613 1.01 2.093 1.715 1.941 3.73 2.925 6.076 2.925 1.133 0 2.143-.252 3.076-.731.982-.528 1.738-1.261 2.27-2.193v2.597h1.789v-13.791h-1.789zm-24.938 9.731c-.074 1.185.303 2.193 1.135 3.077.832.881 1.867 1.311 3.051 1.311 1.287 0 2.371-.403 3.203-1.21.832-.833 1.26-1.892 1.26-3.178 0-1.134-.377-2.017-1.16-2.697-.578-.529-1.486-.958-2.697-1.336-.781-.253-1.336-.505-1.664-.731-.504-.379-.756-.883-.756-1.563 0-1.084.832-1.917 1.916-1.917 1.211 0 2.143.731 2.143 1.942h1.865c0-1.033-.377-1.892-1.133-2.622-.758-.732-1.641-1.109-2.674-1.109-1.135 0-2.066.377-2.85 1.109-.756.73-1.133 1.639-1.133 2.748 0 1.06.377 1.942 1.109 2.623.504.479 1.336.881 2.494 1.209 1.791.53 2.674 1.412 2.674 2.648 0 1.336-1.084 2.294-2.42 2.294-.707 0-1.312-.253-1.816-.757-.479-.529-.705-1.135-.68-1.841zm-6.353 4.06v-7.715c0-.856.076-1.513.229-1.967.25-.73.73-1.336 1.461-1.815.682-.454 1.412-.705 2.219-.757v-1.84c-2.018.075-3.352.831-4.008 2.294v-1.991h-1.766v13.791zm-6.807-13.791h-1.865v13.791h1.865zm-13.666 13.791v-8.521h7.312v-1.689h-7.312v-6.732h7.59v-1.689h-9.455v18.633h1.865zm-27.76-7.916c.229-1.287.832-2.32 1.842-3.152 1.033-.832 2.193-1.236 3.504-1.236 1.262 0 2.395.429 3.404 1.262 1.008.832 1.639 1.891 1.865 3.127h-10.615zm12.481 1.688c-.049-2.192-.578-3.934-1.613-5.194-1.461-1.79-3.303-2.672-5.547-2.672-2.016 0-3.732.705-5.117 2.093-1.387 1.386-2.068 3.102-2.068 5.117 0 2.044.707 3.758 2.094 5.145s3.1 2.067 5.143 2.067c1.488 0 2.85-.453 4.086-1.362 1.26-.906 2.143-2.067 2.621-3.454h-1.941c-.402.934-1.059 1.664-1.992 2.219-.932.53-1.916.808-2.949.808-1.312 0-2.496-.479-3.555-1.413-1.035-.932-1.59-2.067-1.641-3.353h12.479zm-20.572-.73c0 1.537-.529 2.823-1.59 3.908-1.059 1.058-2.344 1.588-3.883 1.588-1.537 0-2.822-.53-3.883-1.588-1.059-1.085-1.588-2.371-1.588-3.908 0-1.488.529-2.749 1.588-3.782 1.061-1.034 2.346-1.564 3.834-1.564 1.537 0 2.824.505 3.908 1.538 1.084 1.034 1.614 2.294 1.614 3.808zm-.051-11.675v7.237c-1.109-1.716-3.203-2.698-5.346-2.698-2.043 0-3.807.681-5.244 2.068-1.438 1.36-2.168 3.05-2.168 5.092 0 .756.127 1.539.377 2.346.277.982.656 1.663 1.135 2.066 1.791 1.892 3.732 2.85 5.775 2.85 2.344 0 4.209-.958 5.572-2.85v2.521h1.764v-18.633h-1.865zm-35.778 18.633v-7.892c0-1.361.228-2.345.656-2.95.705-.982 1.714-1.463 3.025-1.463s2.344.556 3.1 1.665c.43.63.656 1.563.656 2.748v7.892h1.865v-7.69c0-1.486.203-2.521.58-3.05.73-1.034 1.766-1.564 3.051-1.564 1.311 0 2.346.556 3.127 1.64.455.631.68 1.64.68 2.975v7.69h1.867v-7.866c0-1.892-.43-3.278-1.285-4.135-1.389-1.388-2.824-2.093-4.287-2.093-.883 0-1.791.226-2.697.705-.984.53-1.615 1.16-1.941 1.917l-.354-.529c-1.135-1.388-2.623-2.093-4.463-2.093-1.789 0-3.025.705-3.681 2.093v-1.79h-1.766v13.791h1.867zm-6.808-18.633h-1.866v3.178h1.866zm0 4.842h-1.866v13.791h1.866zm-8.722 13.791v-12.103h3.202v-1.688h-3.202v-4.842h-1.866v4.842h-2.874v1.688h2.874v12.103zm-8.397-18.633h-1.865v3.178h1.865zm0 4.842h-1.865v13.791h1.865zm-17.447-5.018c.228.857.706 1.513 1.438 1.966.68.429 1.462.631 2.395.631.934 0 1.715-.202 2.396-.631.731-.453 1.21-1.108 1.438-1.966h-1.589c-.378.781-1.109 1.159-2.244 1.159s-1.866-.378-2.243-1.159zm3.303 6.504c1.563 0 2.875.53 3.934 1.564 1.059 1.033 1.589 2.32 1.589 3.856 0 1.513-.505 2.8-1.539 3.858-1.033 1.033-2.294 1.563-3.807 1.563-1.563 0-2.849-.53-3.832-1.614-.984-1.084-1.463-2.396-1.463-3.959 0-1.437.505-2.672 1.487-3.705.984-1.032 2.194-1.563 3.631-1.563zm5.547-1.486v2.673c-.503-.984-1.286-1.715-2.319-2.245-.958-.479-2.018-.73-3.177-.73-2.194 0-4.109.982-5.724 2.976-.403.479-.731 1.159-.958 2.042-.228.782-.353 1.537-.353 2.219 0 1.991.681 3.706 2.066 5.093 1.388 1.387 3.077 2.093 5.068 2.093 1.16 0 2.219-.252 3.177-.757 1.06-.529 1.791-1.311 2.219-2.295v.758c0 1.41-.201 2.47-.605 3.177-.428.756-1.084 1.361-1.94 1.789-.782.404-1.64.605-2.572.605-2.244 0-3.934-1.084-5.093-3.277h-1.815c.378 1.486 1.21 2.697 2.521 3.656 1.261.932 2.672 1.412 4.235 1.412 2.244 0 4.059-.758 5.446-2.245.705-.781 1.159-1.562 1.387-2.369.151-.581.228-1.488.228-2.748v-11.825h-1.791zm-16.767 13.791v-1.689h-8.32v-6.857h8.044v-1.689h-8.044v-6.707h8.32v-1.689h-10.187v18.633h10.187z"/><path d="m40.5 68.033c0-.609-.036-1.161-.132-1.69-.097-.528-.266-.983-.511-1.392-.247-.409-.564-.725-.965-.971-.402-.229-.903-.347-1.523-.347-.395 0-.733.036-1.037.098-.292.064-.613.153-.959.249-.045 2.441.233 4.349.816 5.751.586 1.383 1.367 2.08 2.352 2.08.712 0 1.229-.315 1.508-.93.305-.616.451-1.566.451-2.848zm3.268-3.333c.287.703.432 1.499.432 2.4 0 1.025-.145 1.945-.449 2.763-.299.798-.697 1.497-1.2 2.083-.505.575-1.097 1.01-1.782 1.31-.687.303-1.433.453-2.227.453-1.023 0-1.949-.2-2.791-.575-.824-.389-1.542-.936-2.127-1.673-.6-.729-1.058-1.621-1.372-2.677-.315-1.066-.47-2.268-.47-3.61 0-1.673.202-3.209.643-4.618.428-1.416 1.033-2.639 1.808-3.69.773-1.046 1.717-1.86 2.816-2.444 1.096-.598 2.306-.889 3.644-.889.323 0 .673.023 1.012.062.349.047.7.097 1.044.156v1.83c-.344-.047-.643-.075-.886-.096-.251-.021-.47-.021-.646-.021-.918 0-1.736.201-2.432.592-.696.403-1.286.948-1.758 1.604-.461.673-.836 1.418-1.11 2.246-.287.838-.451 1.688-.512 2.54.486-.287 1.006-.535 1.543-.707.528-.166 1.155-.256 1.87-.256.737 0 1.43.121 2.066.364.652.251 1.222.607 1.718 1.086.486.465.876 1.047 1.166 1.767zm-35.231 6.637c-.175-.223-.246-.537-.246-.969v-11.873h-2.61l-5.322 2.938 1.229 1.576 3.251-1.025v8.385c0 .432-.095.746-.274.969-.188.209-.592.377-1.203.475l-1.962.293v1.249h9.895v-1.249l-1.564-.293c-.631-.099-1.021-.267-1.194-.476zm15.357-1.9c0-.456-.086-.901-.277-1.311-.196-.408-.459-.787-.797-1.138-.318-.357-.697-.698-1.143-1.027-.447-.334-.906-.658-1.398-.981-.805.428-1.339.972-1.602 1.619-.266.658-.398 1.292-.398 1.906 0 .982.275 1.778.842 2.396.564.605 1.315.911 2.238.911.856 0 1.492-.221 1.915-.639.418-.429.62-1.012.62-1.736zm-4.998-11.638c0 .873.299 1.63.905 2.282.605.636 1.352 1.25 2.252 1.852.647-.419 1.094-.964 1.376-1.604.273-.635.413-1.335.413-2.083 0-.902-.226-1.587-.677-2.063-.452-.487-1.093-.719-1.906-.719-.805 0-1.393.225-1.785.678-.39.471-.578 1.016-.578 1.657zm8.311 8.849c.236.544.354 1.14.354 1.807 0 .693-.139 1.369-.425 2.019-.29.635-.703 1.202-1.252 1.675-.545.481-1.196.86-1.956 1.137-.758.289-1.607.424-2.547.424-1.062 0-2.006-.135-2.798-.403-.794-.268-1.464-.634-1.994-1.086-.537-.468-.936-.994-1.207-1.602-.256-.592-.395-1.226-.395-1.884 0-1.198.347-2.197 1.052-2.999.689-.803 1.577-1.436 2.674-1.912-.452-.302-.89-.624-1.289-.974-.417-.357-.778-.751-1.084-1.178-.301-.417-.552-.888-.722-1.406-.174-.509-.259-1.079-.259-1.696 0-.838.169-1.565.523-2.181.34-.629.8-1.15 1.36-1.568.566-.424 1.214-.753 1.946-.971.72-.208 1.479-.317 2.256-.317.76 0 1.477.098 2.15.291.676.187 1.275.478 1.784.866.504.383.918.86 1.226 1.423.316.568.462 1.206.462 1.934 0 .65-.087 1.218-.293 1.719-.191.509-.454.954-.792 1.357-.338.392-.726.734-1.147 1.043-.44.29-.907.553-1.39.769.511.299 1.011.629 1.501 1.007.493.373.938.783 1.321 1.233.392.452.714.941.941 1.473zm65.889-54.397v-9.946h-3.672l1.047 9.946zm61.691 36.985h-2.627v9.259h-18.768l-.914-9.259h-2.625v9.259h-75.85c-.361-.061-.748-.094-1.158-.094-1.105 0-2.142.19-3.101.582-.968.392-1.839.852-2.621 1.41v1.769c.818-.306 1.527-.514 2.098-.629.592-.114 1.203-.179 1.838-.179 1.171 0 2.016.25 2.544.744.517.492.784 1.164.784 2.02 0 .876-.286 1.625-.867 2.236-.57.605-1.544.955-2.92 1.063l-.989.067v1.637c.557.021 1.15.062 1.772.092.619.047 1.202.17 1.735.373.537.209.982.525 1.335.963.342.43.515 1.079.515 1.901 0 .497-.069.958-.19 1.396-.15.418-.376.797-.707 1.113-.333.323-.767.572-1.311.756-.53.179-1.213.271-2.006.271-.547 0-1.144-.047-1.777-.159-.638-.106-1.336-.304-2.066-.573v1.986c.655.37 1.397.671 2.253.935.827.249 1.809.389 2.914.389.986 0 1.865-.157 2.657-.451.798-.272 1.473-.68 2.03-1.197.562-.519 1.008-1.111 1.309-1.813.312-.688.462-1.452.462-2.265 0-1.341-.398-2.448-1.214-3.292-.809-.859-2.041-1.345-3.71-1.448 1.38-.278 2.443-.86 3.205-1.742.756-.891 1.131-1.989 1.131-3.265 0-.771-.129-1.451-.379-2.038h235.302v-2.557h-137.166zm-43.099-36.985v-9.946h-3.672l1.043 9.946z"/></g><path d="m87.758 20.033c.365.139.65.391.85.732.189.355.322.829.385 1.45.061.61.09 1.419.09 2.45v12.351c0 2.907.742 5.018 2.232 6.354 1.49 1.331 3.383 1.991 5.648 1.991 2.006 0 3.9-.463 5.652-1.406 1.77-.949 3.357-1.971 4.779-3.075.424 1.312 1.242 2.325 2.443 3.047 1.193.71 2.639 1.182 4.318 1.385l1.299-3.812c-1.379-.245-2.359-.697-2.973-1.354-.607-.658-.916-1.7-.916-3.131v-20.698l-9.533 1.841v1.354l2 .245c.586.076 1.072.194 1.438.332.375.139.662.383.863.713.189.32.33.792.408 1.413.076.61.115 1.419.115 2.45v14.496c-1.133.827-2.322 1.466-3.559 1.935-1.234.475-2.521.709-3.861.709-1.764 0-3.158-.437-4.174-1.318-1.029-.885-1.537-2.508-1.537-4.887v-19.282l-9.01 1.841v1.354l1.475.18c.673.082 1.191.201 1.568.34zm-8.217 23.308-2.059-.309c-.598-.076-1.062-.201-1.445-.336-.379-.145-.672-.363-.879-.647-.219-.288-.363-.672-.443-1.168-.078-.484-.119-1.143-.119-1.958v-16.829c1.564-.541 3.096-.798 4.6-.798 1.219 0 2.484.155 3.824.488v-5.896c-1.887 0-3.49.382-4.805 1.161-1.32.778-2.617 2.01-3.912 3.687-.475-1.354-1.307-2.38-2.5-3.102-1.197-.719-2.681-1.137-4.447-1.262l-1.056 3.385c1.371.199 2.329.668 2.878 1.407.553.738.816 1.825.816 3.265v14.493c0 .815-.029 1.474-.109 1.958-.079.496-.21.88-.416 1.168-.189.284-.475.503-.85.647-.364.135-.851.26-1.445.336l-1.997.309v1.349h14.364zm-31.561-1.535c.868 0 1.746-.165 2.628-.495.888-.322 1.992-1.021 3.325-2.087v-7.497c-1.022.216-2.032.416-3.036.627-.995.195-1.916.392-2.763.574-.845.183-1.572.375-2.181.559-.604.183-1.053.332-1.329.455-.19.294-.34.737-.442 1.359-.096.608-.138 1.198-.138 1.771 0 1.638.34 2.834 1.029 3.597.69.752 1.651 1.137 2.907 1.137zm-.376 3.346c-.568.145-1.142.21-1.736.21-.583 0-1.272-.099-2.066-.337-.791-.213-1.527-.627-2.234-1.226-.704-.594-1.309-1.395-1.79-2.389-.497-1.007-.745-2.284-.745-3.844 0-1.311.148-2.452.448-3.438.297-.981.638-1.657 1.028-2.022.822-.164 1.807-.359 2.945-.559 1.142-.204 2.313-.392 3.562-.591 1.233-.181 2.463-.347 3.678-.519 1.218-.159 2.304-.303 3.24-.432v-4.481c0-1.843-.498-3.155-1.502-3.931-1-.777-2.43-1.169-4.269-1.169-2.396 0-4.918.476-7.603 1.419v-1.779c1.224-.983 2.624-1.786 4.19-2.4 1.561-.615 3.296-.917 5.17-.917 1.225 0 2.36.162 3.42.484 1.06.333 1.98.809 2.771 1.417.788.615 1.405 1.367 1.854 2.274.452.901.678 1.94.678 3.129v12.964c0 1.431.306 2.473.914 3.131.604.656 1.594 1.108 2.972 1.354l-1.413 3.812c-1.525-.203-2.945-.7-4.246-1.448-1.285-.76-2.135-1.834-2.526-3.223-.978.938-1.865 1.721-2.646 2.334-.785.613-1.518 1.094-2.211 1.436-.684.357-1.319.596-1.883.741zm239.101-13.425c-1.02.216-2.033.416-3.025.627-1.008.195-1.924.392-2.764.574-.852.183-1.574.375-2.189.559-.609.183-1.045.332-1.322.455-.199.294-.342.737-.439 1.359-.096.608-.139 1.198-.139 1.771 0 1.638.338 2.834 1.02 3.597.693.753 1.66 1.138 2.924 1.138.857 0 1.734-.165 2.617-.495.883-.322 1.986-1.021 3.318-2.087v-7.498zm8.596 9.774-1.408 3.812c-1.529-.203-2.949-.7-4.238-1.448-1.297-.76-2.131-1.834-2.529-3.223-.986.938-1.859 1.721-2.654 2.334-.783.613-1.516 1.094-2.211 1.436-.676.356-1.311.596-1.877.741-.57.145-1.146.21-1.734.21-.586 0-1.283-.099-2.066-.337-.781-.213-1.518-.627-2.24-1.226-.699-.594-1.301-1.395-1.789-2.389-.494-1.007-.738-2.284-.738-3.844 0-1.311.15-2.452.443-3.438.295-.981.633-1.657 1.025-2.022.826-.164 1.809-.359 2.949-.559 1.133-.204 2.318-.392 3.564-.591 1.23-.181 2.461-.347 3.674-.519 1.219-.159 2.301-.303 3.234-.432v-4.481c0-1.843-.494-3.155-1.498-3.931-1.002-.777-2.424-1.169-4.273-1.169-2.391 0-4.91.476-7.592 1.419v-1.779c1.217-.983 2.617-1.786 4.184-2.4 1.562-.615 3.299-.917 5.18-.917 1.217 0 2.359.162 3.416.484 1.059.333 1.979.809 2.76 1.417.795.615 1.416 1.367 1.863 2.274.443.901.674 1.94.674 3.129v12.964c0 1.431.305 2.473.92 3.131.596.657 1.584 1.109 2.961 1.354zm-267.095-16.278c0-3.195-.303-5.915-.912-8.173-.609-2.248-1.513-4.073-2.713-5.465-1.193-1.385-2.672-2.399-4.436-3.036-1.772-.642-3.795-.95-6.072-.95-.824 0-1.537.028-2.153.092-.597.063-1.178.125-1.733.21v30.099c0 .938.05 1.717.152 2.328.099.619.31 1.092.648 1.41.336.334.84.561 1.529.683.689.128 1.62.18 2.796.18 4.162 0 7.353-1.366 9.571-4.107 2.217-2.744 3.323-7.177 3.323-13.271zm4.388 7.405c-.691 2.43-1.784 4.535-3.27 6.321-1.491 1.784-3.439 3.188-5.863 4.21-2.405 1.021-5.34 1.53-8.794 1.53h-14.307v-1.349l2.001-.309c1.179-.209 1.943-.546 2.292-1.017.357-.468.534-1.135.534-1.995v-29.972c0-.9-.177-1.6-.534-2.087-.349-.491-1.113-.814-2.292-.977l-2.001-.246v-1.361h13.419c6.597 0 11.551 1.63 14.867 4.894 3.314 3.245 4.976 8.071 4.976 14.459 0 2.827-.347 5.459-1.028 7.899zm228.06 9.699c.805 1.172 1.451 2.101 1.914 2.796l7.068-.434v-.239c-.666-.536-1.709-1.519-3.119-2.949-1.408-1.438-3.145-3.462-5.188-6.082l-5.533-7.066 7.959-7.118c.898-.826 1.641-1.379 2.232-1.67.59-.278 1.271-.46 2.055-.55l1.125-.119v-1.349h-10.189v1.349l.533.119c.424.09.709.202.855.34.135.146.199.319.199.52 0 .249-.139.599-.406 1.05-.285.449-.93 1.148-1.947 2.087l-7.057 6.454 6.066 8.165c1.49 1.969 2.631 3.526 3.433 4.696zm-30.748-10.6c-1.023.216-2.039.416-3.039.627-.998.195-1.92.392-2.771.574-.844.183-1.57.375-2.176.559-.611.183-1.047.332-1.332.455-.188.294-.344.737-.434 1.359-.098.608-.148 1.198-.148 1.771 0 1.638.35 2.834 1.029 3.597.688.753 1.656 1.138 2.916 1.138.859 0 1.74-.165 2.623-.495.883-.322 1.988-1.021 3.332-2.087zm0-1.72v-4.481c0-1.843-.504-3.155-1.512-3.931-.994-.777-2.422-1.169-4.264-1.169-2.385 0-4.926.476-7.6 1.419v-1.779c1.217-.983 2.617-1.786 4.188-2.4 1.557-.615 3.289-.917 5.174-.917 1.217 0 2.354.162 3.412.484 1.066.333 1.979.809 2.771 1.417.779.615 1.408 1.367 1.855 2.274.455.901.67 1.94.67 3.129v12.964c0 1.431.301 2.473.924 3.131.596.656 1.592 1.108 2.963 1.354l-1.41 3.812c-1.527-.203-2.936-.7-4.236-1.448-1.299-.76-2.143-1.834-2.527-3.223-.99.938-1.873 1.721-2.66 2.334-.779.613-1.518 1.094-2.203 1.436-.688.356-1.314.596-1.877.741-.574.145-1.152.21-1.744.21-.584 0-1.275-.099-2.061-.337-.787-.213-1.533-.627-2.234-1.226-.697-.594-1.307-1.395-1.793-2.389-.494-1.007-.744-2.284-.744-3.844 0-1.311.15-2.452.451-3.438.293-.981.631-1.657 1.025-2.022.826-.164 1.803-.359 2.947-.559 1.133-.204 2.324-.392 3.562-.591 1.234-.181 2.459-.347 3.672-.519 1.216-.16 2.3-.303 3.251-.432zm-29.511 8.916c0 .815-.027 1.474-.102 1.958-.082.496-.227.88-.416 1.168-.205.284-.469.503-.832.647-.348.135-.816.26-1.414.336l-2.061.309v1.349h14.666v-1.349l-2.359-.309c-.588-.076-1.055-.186-1.408-.305-.357-.128-.646-.34-.85-.647-.229-.303-.357-.703-.412-1.199-.064-.484-.09-1.143-.09-1.958v-18.43h7.23v-2.946h-7.23v-11.37c.66-.369 1.404-.616 2.229-.77.832-.138 1.709-.21 2.648-.21.705 0 1.504.054 2.391.144.879.113 1.896.31 3.035.6l.641-5.227c-2.316 0-4.434.226-6.348.678-1.926.453-3.574 1.208-4.951 2.271-1.379 1.068-2.445 2.467-3.205 4.21-.777 1.742-1.162 3.897-1.162 6.477v3.198h-5.348v1.349l5.348 1.841zm54.876 4.418-2.059-.309c-.59-.076-1.064-.201-1.414-.336-.355-.145-.643-.363-.85-.647-.219-.288-.355-.672-.412-1.168-.064-.484-.098-1.143-.098-1.958v-38.209l-9.535 1.474v1.356l2.059.302c.588.083 1.061.193 1.416.34.35.142.627.377.822.699.199.334.334.803.414 1.422.08.611.125 1.432.125 2.453v30.163c0 .815-.045 1.474-.125 1.958-.08.496-.215.88-.414 1.168-.195.284-.473.503-.822.647-.355.135-.828.26-1.416.336l-2.059.309v1.349h14.367v-1.349zm-106.732-12.16c1.057.652 2.232 1.188 3.504 1.594 1.275.407 2.445.856 3.496 1.354 1.062.49 1.949 1.101 2.688 1.847.721.731 1.086 1.71 1.086 2.947 0 1.554-.566 2.68-1.699 3.404-1.146.717-2.537 1.078-4.195 1.078-.701 0-1.396-.057-2.084-.156-.686-.105-1.322-.307-1.91-.61-.584-.312-1.104-.749-1.566-1.328-.449-.572-.77-1.321-.969-2.271l-.525-2.461h-1.545v7.807c1.113.242 2.32.471 3.633.665 1.312.215 2.721.312 4.207.312 1.652 0 3.156-.143 4.533-.455 1.377-.316 2.553-.792 3.531-1.446.982-.659 1.754-1.496 2.305-2.515.541-1.022.822-2.251.822-3.69 0-1.716-.357-3.094-1.062-4.146-.713-1.041-1.59-1.879-2.648-2.514-1.062-.636-2.225-1.155-3.477-1.563-1.258-.413-2.412-.862-3.473-1.36-1.064-.482-1.949-1.074-2.65-1.774-.699-.698-1.057-1.656-1.057-2.888 0-1.392.488-2.45 1.473-3.165.979-.713 2.213-1.077 3.711-1.077 1.838 0 3.178.371 3.994 1.105.826.746 1.453 1.758 1.887 3.069l.65 2.031h1.471v-7.182c-1.143-.246-2.332-.482-3.561-.705-1.236-.226-2.678-.34-4.32-.34-1.338 0-2.605.146-3.805.456-1.199.314-2.254.793-3.174 1.445-.936.658-1.67 1.459-2.219 2.426-.543.961-.822 2.112-.822 3.47 0 1.718.369 3.095 1.096 4.118.725 1.02 1.617 1.859 2.674 2.518zm25.731 5.89c0 1.638.336 2.834 1.027 3.597.682.753 1.65 1.138 2.916 1.138.863 0 1.73-.165 2.613-.495.883-.322 1.998-1.021 3.322-2.087v-7.497c-1.006.216-2.029.416-3.021.627-1.006.195-1.93.392-2.768.574-.855.183-1.574.375-2.178.559-.609.183-1.057.332-1.326.455-.207.294-.352.737-.439 1.359-.104.608-.146 1.198-.146 1.77zm-4.27 4.34c-.498-1.007-.73-2.284-.73-3.844 0-1.311.135-2.452.432-3.438.299-.981.635-1.657 1.031-2.022.824-.164 1.805-.359 2.947-.559 1.133-.204 2.312-.392 3.559-.591 1.232-.181 2.457-.347 3.676-.519 1.219-.159 2.295-.303 3.234-.432v-4.481c0-1.843-.502-3.155-1.492-3.931-1.006-.777-2.42-1.169-4.271-1.169-2.4 0-4.922.476-7.59 1.419v-1.779c1.205-.983 2.607-1.786 4.184-2.4 1.564-.615 3.293-.917 5.172-.917 1.221 0 2.355.162 3.416.484 1.061.333 1.977.809 2.771 1.417.773.615 1.393 1.367 1.85 2.274.453.901.688 1.94.688 3.129v12.964c0 1.431.289 2.473.895 3.131.609.656 1.609 1.108 2.973 1.354l-1.406 3.812c-1.525-.203-2.934-.7-4.238-1.448-1.301-.76-2.139-1.834-2.537-3.223-.977.938-1.854 1.721-2.633 2.334-.799.613-1.531 1.094-2.219 1.436-.684.356-1.318.596-1.881.741-.576.145-1.152.21-1.746.21-.578 0-1.27-.099-2.053-.337-.783-.213-1.533-.627-2.244-1.226-.708-.594-1.3-1.395-1.788-2.389zm-47.926-12.748c-.721-1.023-1.084-2.4-1.084-4.118 0-1.357.271-2.509.818-3.47.545-.967 1.289-1.768 2.209-2.426.924-.652 1.986-1.131 3.184-1.445 1.195-.311 2.455-.456 3.797-.456 1.65 0 3.09.114 4.322.34 1.238.223 2.424.459 3.562.705v7.182h-1.471l-.641-2.031c-.436-1.312-1.068-2.323-1.887-3.069-.826-.734-2.166-1.105-4.012-1.105-1.486 0-2.725.364-3.701 1.077-.988.715-1.473 1.773-1.473 3.165 0 1.231.346 2.189 1.059 2.888.705.7 1.594 1.292 2.65 1.774 1.057.498 2.213.947 3.473 1.36 1.252.408 2.418.928 3.473 1.563 1.059.635 1.936 1.473 2.65 2.514.703 1.052 1.057 2.43 1.057 4.146 0 1.439-.27 2.668-.826 3.69-.549 1.019-1.309 1.855-2.291 2.515-.98.654-2.156 1.13-3.539 1.446-1.365.312-2.883.455-4.533.455-1.48 0-2.895-.097-4.201-.312-1.318-.194-2.525-.423-3.619-.665v-7.807h1.529l.525 2.461c.195.949.518 1.698.969 2.271.455.579.977 1.017 1.559 1.328.596.304 1.223.505 1.916.61.688.1 1.387.156 2.092.156 1.645 0 3.049-.361 4.18-1.078 1.137-.725 1.705-1.851 1.705-3.404 0-1.237-.357-2.216-1.088-2.947-.719-.746-1.617-1.356-2.688-1.847-1.051-.498-2.217-.947-3.49-1.354-1.277-.405-2.443-.941-3.51-1.594-1.048-.659-1.946-1.498-2.675-2.518z" fill="#00533d"/></g></svg>